M48
; DRILL file {KiCad (5.1.9)-1} date 05/20/21 16:46:50
; FORMAT={-:-/ absolute / metric / decimal}
; #@! TF.CreationDate,2021-05-20T16:46:50+02:00
; #@! TF.GenerationSoftware,Kicad,Pcbnew,(5.1.9)-1
FMAT,2
METRIC
T1C0.300
T2C0.400
T3C0.710
T4C0.800
T5C0.900
T6C1.000
T7C1.016
T8C1.100
T9C1.300
T10C1.500
T11C3.200
T12C3.100
%
G90
G05
T1
X16.57Y95.25
X16.6Y91.48
X17.2Y94.28
X17.2Y93.28
X22.4Y46.28
X23.2Y46.28
X23.4Y97.88
X23.4Y95.28
X25.2Y97.48
X27.075Y91.955
X30.4Y97.68
X34.0Y46.28
X34.8Y46.28
X40.799Y71.683
X40.8Y89.68
X41.0Y103.08
X41.0Y102.28
X42.4Y74.28
X43.053Y70.933
X43.4Y91.88
X44.4Y71.28
X45.4Y46.28
X46.2Y46.28
X48.2Y98.68
X56.8Y46.28
X57.6Y46.28
X60.8Y95.28
X60.8Y94.28
X63.4Y98.48
X63.4Y57.88
X65.8Y95.28
X65.8Y94.28
X69.8Y43.08
X71.8Y36.68
X71.8Y35.88
X71.8Y35.08
X71.8Y32.28
X71.8Y31.48
X71.829Y43.026
X72.4Y93.08
X72.6Y40.48
X72.6Y36.68
X72.6Y35.88
X72.6Y35.08
X72.6Y32.28
X72.6Y31.48
X73.4Y36.68
X73.4Y35.88
X73.4Y35.08
X73.4Y32.28
X73.4Y31.48
X75.6Y72.28
X76.4Y77.08
X76.4Y40.48
X76.4Y38.88
X76.6Y42.08
X76.797Y29.845
X77.6Y45.28
X77.978Y32.004
X78.4Y44.88
X78.701Y33.485
X78.758Y39.722
X78.8Y36.48
X80.8Y68.68
X81.0Y40.48
X81.4Y75.48
X81.4Y74.68
X82.2Y75.48
X82.2Y74.68
X82.225Y54.08
X82.6Y68.68
X83.0Y75.48
X83.0Y74.68
X83.158Y54.038
X83.642Y55.722
X84.0Y54.08
X84.0Y43.055
X84.025Y56.48
X84.6Y72.08
X84.8Y54.08
X85.4Y72.08
X85.558Y60.722
X85.8Y54.08
X85.8Y39.08
X86.4Y72.08
X86.4Y69.28
X86.4Y68.48
X86.4Y60.68
X86.8Y54.08
X87.2Y36.08
X87.2Y35.28
X87.2Y34.48
X87.2Y32.08
X87.2Y31.28
X88.0Y36.08
X88.0Y35.28
X88.0Y34.48
X88.0Y32.08
X88.0Y31.28
X88.8Y36.08
X88.8Y35.28
X88.8Y34.48
X88.8Y31.28
X89.2Y43.28
X89.2Y41.88
X90.0Y43.28
X90.0Y41.88
X90.4Y39.48
X92.0Y38.28
X92.8Y91.88
X92.8Y88.88
X92.8Y38.28
X93.0Y73.88
X93.2Y58.68
X93.2Y57.88
X93.2Y57.08
X93.825Y36.855
X94.0Y58.68
X94.0Y57.88
X94.0Y57.08
X94.214Y21.6
X94.4Y40.28
X94.8Y58.68
X94.8Y57.88
X94.8Y57.08
X95.2Y40.28
X95.4Y68.68
X96.2Y68.68
X100.224Y100.681
X104.0Y23.68
X105.2Y23.455
X106.4Y76.68
X107.2Y76.68
X108.0Y76.68
X109.4Y38.68
X110.2Y31.08
X111.135Y31.068
X112.8Y32.649
X118.6Y23.88
X119.38Y72.26
X119.4Y65.68
X121.0Y76.88
X121.8Y76.88
X122.0Y91.48
X122.301Y96.779
X122.6Y76.88
X124.302Y101.378
X125.193Y101.473
X127.2Y91.88
X129.0Y91.88
X136.4Y100.08
X137.0Y78.88
X137.2Y77.68
X138.78Y100.299
X138.8Y43.48
X140.0Y47.88
X140.2Y76.28
X141.6Y77.08
X141.6Y75.68
X141.6Y74.855
X141.6Y74.055
X141.6Y73.08
X141.6Y39.48
X141.711Y102.591
X141.792Y85.324
X141.8Y23.68
X141.942Y84.538
X142.4Y82.28
X142.511Y102.591
X143.311Y102.591
X143.4Y43.88
X143.4Y32.014
X144.111Y102.591
X144.4Y27.88
X144.6Y31.88
X144.8Y17.68
X147.4Y101.08
X147.4Y41.48
X148.2Y101.08
X148.4Y79.88
X148.6Y42.48
X149.0Y75.48
X149.0Y74.68
X149.0Y43.48
X149.158Y81.522
X149.2Y35.08
X149.8Y75.48
X149.8Y74.68
X150.0Y43.88
X150.4Y33.48
X151.349Y104.429
X151.949Y103.829
X152.549Y103.229
X152.797Y61.077
X153.035Y102.315
X153.286Y102.994
X153.786Y103.494
X153.8Y61.88
X154.625Y103.505
X155.0Y73.48
X155.4Y37.28
X161.2Y40.055
X161.775Y38.28
X162.0Y83.88
X162.4Y40.28
X165.0Y86.08
X165.4Y74.28
X166.4Y41.28
X166.4Y40.48
X167.2Y41.28
X167.2Y40.48
X168.0Y41.28
X168.0Y40.48
X168.796Y62.065
X168.796Y62.065
X168.796Y55.334
X168.796Y55.334
X168.832Y52.38
X168.832Y52.38
X168.832Y45.649
X168.832Y45.649
X168.836Y81.622
X168.836Y74.891
X168.865Y71.849
X168.865Y71.849
X168.865Y65.118
X168.865Y65.118
X173.6Y91.88
X174.2Y94.08
X174.6Y101.08
X174.6Y100.28
X174.6Y99.48
X175.0Y94.08
X175.2Y66.28
X175.4Y101.08
X175.4Y100.28
X175.4Y99.48
X175.4Y69.68
X175.8Y94.08
X176.2Y101.08
X176.2Y100.28
X176.2Y99.48
X176.8Y74.48
X176.8Y59.68
X176.96Y50.094
X176.96Y50.094
X176.964Y79.336
X176.993Y69.563
X176.993Y69.563
X177.8Y91.28
X184.4Y50.08
X186.0Y71.88
X186.0Y71.08
X186.54Y49.02
X188.4Y88.68
X188.8Y82.08
X188.8Y73.68
X189.4Y70.28
X189.8Y68.08
X190.2Y60.88
X192.0Y82.08
X192.1Y78.08
X192.2Y76.08
X193.4Y33.08
X193.4Y32.08
X193.4Y22.68
X193.4Y21.88
X193.7Y78.18
X194.0Y85.68
X194.2Y22.68
X194.2Y21.88
X195.2Y82.08
X196.75Y73.83
X196.75Y62.43
X198.0Y85.68
X199.0Y88.48
T2
X13.462Y102.362
X15.875Y93.345
X23.747Y49.416
X25.781Y53.467
X27.432Y94.996
X32.2Y58.28
X33.6Y74.88
X35.177Y49.416
X35.433Y74.803
X36.322Y58.801
X37.211Y53.467
X37.973Y85.979
X38.1Y68.326
X46.607Y49.416
X48.641Y53.467
X58.037Y49.416
X59.4Y68.08
X59.4Y67.08
X59.6Y91.08
X59.6Y89.88
X60.198Y53.467
X65.0Y68.08
X65.0Y67.08
X65.2Y91.08
X65.2Y89.88
X65.659Y32.893
X67.056Y31.877
X67.945Y35.179
X69.215Y29.21
X72.644Y29.464
X75.057Y38.989
X77.343Y35.179
X77.47Y39.624
X80.976Y32.9
X82.373Y31.884
X83.262Y35.186
X84.532Y29.217
X87.961Y29.471
X90.805Y22.987
X91.821Y22.225
X92.202Y29.337
X92.202Y23.876
X92.948Y24.654
X92.964Y34.609
X93.001Y35.777
X93.091Y30.988
X93.599Y32.893
X95.7Y19.98
X96.7Y19.58
X97.05Y31.93
X100.692Y24.654
X101.2Y19.58
X101.461Y24.013
X102.229Y23.373
X102.997Y22.733
X109.093Y83.185
X112.014Y78.74
X113.03Y83.439
X113.284Y82.042
X113.792Y78.74
X115.824Y33.274
X116.84Y85.471
X123.444Y83.185
X125.858Y62.233
X125.858Y58.677
X126.112Y55.121
X126.112Y51.565
X126.112Y47.755
X126.112Y43.945
X126.112Y40.135
X126.112Y36.579
X126.479Y94.348
X126.492Y78.74
X127.635Y83.185
X128.016Y81.788
X128.143Y78.613
X129.54Y100.457
X131.318Y96.901
X132.715Y53.086
X132.842Y42.037
X133.096Y49.53
X133.604Y57.15
X133.731Y63.88
X134.48Y94.348
X135.636Y60.833
X139.446Y96.901
X142.24Y31.877
X146.0Y37.17
X147.32Y39.36
X147.955Y104.267
X148.2Y38.68
X149.6Y31.68
X149.647Y19.939
X149.987Y38.989
X150.77Y40.365
X151.003Y38.227
X151.4Y31.75
X152.019Y37.338
X152.019Y35.433
X155.194Y35.179
X157.786Y35.34
X158.75Y51.562
X159.258Y33.413
X159.766Y65.405
X159.893Y45.974
X161.036Y75.311
X161.036Y55.626
X161.29Y44.831
X161.671Y81.407
X161.671Y72.898
X161.671Y63.246
X161.671Y53.467
X163.662Y40.539
X165.735Y32.893
X173.175Y37.631
X173.609Y80.645
X173.609Y61.214
X178.89Y38.139
X182.245Y41.656
X184.785Y61.722
X185.039Y15.748
X190.5Y25.273
X191.008Y26.162
X193.675Y36.576
X193.728Y27.139
X194.236Y29.679
X194.49Y26.123
X197.612Y22.352
X198.501Y21.717
T3
X62.154Y41.636
X63.754Y46.736
X183.693Y96.754
X185.293Y101.854
T4
X139.954Y106.005
X139.954Y103.505
X155.956Y106.005
X155.956Y103.505
X158.445Y99.249
X158.445Y96.749
X163.449Y106.005
X163.449Y103.505
X166.04Y99.249
X166.04Y96.749
T5
X184.81Y56.39
X184.81Y54.1
X184.81Y44.96
X184.81Y42.67
X189.67Y52.08
X189.67Y50.04
X189.67Y48.0
X189.67Y45.96
X191.45Y53.1
X191.45Y51.06
X191.45Y49.02
X191.45Y46.98
T6
X5.08Y101.6
X5.08Y99.06
X5.08Y96.52
X5.08Y93.98
X5.08Y91.44
X5.08Y88.9
X5.08Y86.36
X5.08Y83.82
X5.08Y81.28
X5.08Y78.74
X5.08Y76.2
X5.08Y73.66
X5.08Y71.12
X5.08Y68.58
X5.08Y66.04
X5.08Y63.5
X5.08Y60.96
X5.08Y50.8
X5.08Y48.26
X5.08Y45.72
X5.08Y43.18
X5.08Y40.64
X5.08Y38.1
X5.08Y35.56
X5.08Y33.02
X5.08Y30.48
X5.08Y27.94
X5.08Y25.4
X5.08Y22.86
X5.08Y20.32
X5.08Y17.78
X5.08Y15.24
X5.08Y12.7
X5.08Y10.16
X7.62Y101.6
X7.62Y99.06
X7.62Y96.52
X7.62Y93.98
X7.62Y91.44
X7.62Y88.9
X7.62Y86.36
X7.62Y83.82
X7.62Y81.28
X7.62Y78.74
X7.62Y76.2
X7.62Y73.66
X7.62Y71.12
X7.62Y68.58
X7.62Y66.04
X7.62Y63.5
X7.62Y60.96
X7.62Y50.8
X7.62Y48.26
X7.62Y45.72
X7.62Y43.18
X7.62Y40.64
X7.62Y38.1
X7.62Y35.56
X7.62Y33.02
X7.62Y30.48
X7.62Y27.94
X7.62Y25.4
X7.62Y22.86
X7.62Y20.32
X7.62Y17.78
X7.62Y15.24
X7.62Y12.7
X7.62Y10.16
X24.13Y44.39
X24.13Y40.64
X35.56Y44.39
X35.56Y40.64
X44.46Y103.08
X46.99Y44.39
X46.99Y40.64
X47.0Y103.08
X50.8Y62.23
X50.8Y59.69
X53.34Y62.23
X53.34Y59.69
X55.88Y62.23
X55.88Y59.69
X58.42Y44.39
X58.42Y40.64
X69.85Y90.17
X69.85Y26.67
X72.326Y102.87
X72.326Y100.33
X72.39Y90.17
X72.39Y26.67
X74.867Y102.87
X74.867Y100.33
X77.406Y102.87
X77.406Y100.33
X79.947Y102.87
X79.947Y100.33
X82.486Y102.87
X82.486Y100.33
X85.026Y102.87
X85.026Y100.33
X87.566Y102.87
X87.566Y100.33
X90.106Y102.87
X90.106Y100.33
X92.646Y102.87
X92.646Y100.33
X95.186Y102.87
X95.186Y100.33
X97.79Y90.17
X97.79Y87.63
X97.79Y29.21
X97.79Y26.67
X100.33Y90.17
X100.33Y87.63
X100.33Y29.21
X100.33Y26.67
X102.87Y90.17
X102.87Y87.63
X102.87Y29.21
X102.87Y26.67
X105.41Y90.17
X105.41Y87.63
X105.41Y29.21
X105.41Y26.67
X107.95Y90.17
X107.95Y87.63
X107.95Y29.21
X107.95Y26.67
X110.49Y90.17
X110.49Y87.63
X110.49Y29.21
X110.49Y26.67
X113.03Y90.17
X113.03Y87.63
X113.03Y29.21
X113.03Y26.67
X115.57Y90.17
X115.57Y87.63
X115.57Y29.21
X115.57Y26.67
X118.11Y90.17
X118.11Y87.63
X118.11Y29.21
X118.11Y26.67
X120.65Y90.17
X120.65Y87.63
X120.65Y29.21
X120.65Y26.67
X123.19Y90.17
X123.19Y87.63
X123.19Y29.21
X123.19Y26.67
X125.73Y90.17
X125.73Y87.63
X125.73Y29.21
X125.73Y26.67
X128.27Y90.17
X128.27Y87.63
X128.27Y29.21
X128.27Y26.67
X130.81Y90.17
X130.81Y87.63
X130.81Y29.21
X130.81Y26.67
X133.35Y90.17
X133.35Y87.63
X133.35Y29.21
X133.35Y26.67
X135.89Y90.17
X135.89Y87.63
X135.89Y29.21
X135.89Y26.67
X138.43Y90.17
X138.43Y87.63
X138.43Y29.21
X138.43Y26.67
X139.4Y51.08
X140.97Y90.17
X140.97Y87.63
X140.97Y29.21
X140.97Y26.67
X141.94Y51.08
X143.51Y90.17
X143.51Y87.63
X143.51Y29.21
X143.51Y26.67
X146.05Y90.17
X146.05Y87.63
X146.05Y29.21
X146.05Y26.67
X148.59Y90.17
X148.59Y87.63
X148.59Y29.21
X148.59Y26.67
X151.13Y90.17
X151.13Y87.63
X151.13Y29.21
X151.13Y26.67
X153.67Y90.17
X153.67Y87.63
X153.67Y29.21
X153.67Y26.67
X156.21Y90.17
X156.21Y87.63
X156.21Y29.21
X156.21Y26.67
X158.75Y90.17
X158.75Y87.63
X158.75Y29.21
X158.75Y26.67
X160.823Y19.939
X161.29Y90.17
X161.29Y87.63
X161.29Y29.21
X161.29Y26.67
X163.363Y19.939
X163.83Y90.17
X163.83Y87.63
X163.83Y29.21
X163.83Y26.67
X166.37Y90.17
X166.37Y87.63
X166.37Y29.21
X166.37Y26.67
X168.91Y90.17
X168.91Y87.63
X168.91Y29.21
X168.91Y26.67
X171.45Y90.17
X171.45Y87.63
X171.45Y29.21
X171.45Y26.67
X173.2Y21.68
X173.99Y90.17
X173.99Y87.63
X173.99Y29.21
X173.99Y26.67
X175.74Y21.68
X176.365Y13.97
X176.53Y90.17
X176.53Y87.63
X176.53Y29.21
X176.53Y26.67
X176.604Y37.758
X176.604Y35.218
X177.735Y11.13
X178.28Y21.68
X179.07Y90.17
X179.07Y87.63
X179.07Y29.21
X179.07Y26.67
X179.105Y13.97
X179.972Y60.033
X179.972Y57.493
X180.008Y50.348
X180.008Y47.808
X180.012Y79.59
X180.012Y77.05
X180.041Y69.817
X180.041Y67.277
X180.475Y11.13
X180.922Y37.758
X180.922Y35.218
X181.61Y90.17
X181.61Y87.63
X181.61Y29.21
X181.61Y26.67
X181.845Y13.97
X183.215Y11.13
X183.462Y37.758
X183.462Y35.218
X184.15Y90.17
X184.15Y87.63
X184.15Y29.21
X184.15Y26.67
X184.585Y13.97
X185.955Y11.13
X186.002Y37.758
X186.002Y35.218
X186.69Y90.17
X186.69Y87.63
X186.69Y29.21
X186.69Y26.67
X187.325Y13.97
T7
X17.6Y13.97
X21.1Y8.97
X24.6Y13.97
X28.1Y8.97
X31.6Y13.97
X35.1Y8.97
X40.8Y13.97
X44.3Y8.97
X47.8Y13.97
X51.3Y8.97
X54.8Y13.97
X58.3Y8.97
X66.04Y13.97
X69.54Y8.97
X73.04Y13.97
X76.54Y8.97
X80.04Y13.97
X83.54Y8.97
X87.04Y13.97
X90.54Y8.97
X96.52Y13.97
X100.02Y8.97
X103.52Y13.97
X105.07Y102.79
X107.02Y8.97
X108.57Y97.79
X110.52Y13.97
X112.07Y102.79
X114.02Y8.97
X115.57Y97.79
X117.52Y13.97
X121.02Y8.97
X127.0Y13.97
X130.5Y8.97
X134.0Y13.97
X137.5Y8.97
X141.0Y13.97
X144.5Y8.97
X148.0Y13.97
X151.5Y8.97
X157.48Y13.97
X160.98Y8.97
X190.81Y102.79
X194.31Y97.79
T8
X172.847Y97.79
X175.387Y97.79
X177.927Y97.79
T9
X24.13Y29.39
X24.13Y24.39
X24.13Y19.39
X35.56Y29.39
X35.56Y24.39
X35.56Y19.39
X46.99Y29.39
X46.99Y24.39
X46.99Y19.39
X58.42Y29.39
X58.42Y24.39
X58.42Y19.39
T10
X190.56Y57.78
X190.56Y41.28
T11
X169.35Y12.55
X194.34Y12.55
T12
X193.99Y55.88
X193.99Y43.18
T0
M30
