%TF.GenerationSoftware,KiCad,Pcbnew,(5.1.9)-1*%
%TF.CreationDate,2021-05-20T19:37:26+02:00*%
%TF.ProjectId,AR2ISS_MainCTL_HW,41523249-5353-45f4-9d61-696e43544c5f,rev?*%
%TF.SameCoordinates,PXe448a9c0PYfd535690*%
%TF.FileFunction,Soldermask,Bot*%
%TF.FilePolarity,Negative*%
%FSLAX46Y46*%
G04 Gerber Fmt 4.6, Leading zero omitted, Abs format (unit mm)*
G04 Created by KiCad (PCBNEW (5.1.9)-1) date 2021-05-20 19:37:26*
%MOMM*%
%LPD*%
G01*
G04 APERTURE LIST*
%ADD10C,1.700000*%
%ADD11O,1.700000X1.700000*%
%ADD12R,1.700000X1.700000*%
%ADD13C,1.524000*%
%ADD14C,4.800000*%
%ADD15C,1.500000*%
%ADD16C,1.270000*%
%ADD17C,3.100000*%
%ADD18C,1.900000*%
%ADD19C,1.300000*%
%ADD20C,2.000000*%
%ADD21R,2.000000X2.000000*%
%ADD22C,2.400000*%
%ADD23R,1.600000X1.600000*%
%ADD24C,1.600000*%
%ADD25R,1.905000X2.000000*%
%ADD26O,1.905000X2.000000*%
G04 APERTURE END LIST*
D10*
%TO.C,U2*%
X97790000Y26670000D03*
X97790000Y29210000D03*
X100330000Y26670000D03*
X100330000Y29210000D03*
X102870000Y26670000D03*
X102870000Y29210000D03*
X105410000Y26670000D03*
X105410000Y29210000D03*
X107950000Y26670000D03*
X107950000Y29210000D03*
X110490000Y26670000D03*
X110490000Y29210000D03*
X113030000Y26670000D03*
X113030000Y29210000D03*
X115570000Y26670000D03*
X115570000Y29210000D03*
X118110000Y26670000D03*
X118110000Y29210000D03*
X120650000Y26670000D03*
X120650000Y29210000D03*
X123190000Y26670000D03*
X123190000Y29210000D03*
X125730000Y26670000D03*
X125730000Y29210000D03*
X128270000Y26670000D03*
X128270000Y29210000D03*
X130810000Y26670000D03*
X130810000Y29210000D03*
X133350000Y26670000D03*
X133350000Y29210000D03*
X135890000Y26670000D03*
X135890000Y29210000D03*
X138430000Y26670000D03*
X138430000Y29210000D03*
X140970000Y26670000D03*
X140970000Y29210000D03*
X143510000Y26670000D03*
X143510000Y29210000D03*
X146050000Y26670000D03*
X146050000Y29210000D03*
X148590000Y26670000D03*
X148590000Y29210000D03*
X151130000Y26670000D03*
X151130000Y29210000D03*
X153670000Y26670000D03*
X153670000Y29210000D03*
X156210000Y26670000D03*
X156210000Y29210000D03*
X158750000Y26670000D03*
X158750000Y29210000D03*
X161290000Y26670000D03*
X161290000Y29210000D03*
X163830000Y26670000D03*
X163830000Y29210000D03*
X166370000Y26670000D03*
X166370000Y29210000D03*
X168910000Y26670000D03*
X168910000Y29210000D03*
X171450000Y26670000D03*
X171450000Y29210000D03*
X173990000Y26670000D03*
X173990000Y29210000D03*
X176530000Y26670000D03*
X176530000Y29210000D03*
X179070000Y26670000D03*
X179070000Y29210000D03*
X181610000Y26670000D03*
X181610000Y29210000D03*
X184150000Y26670000D03*
X184150000Y29210000D03*
X186690000Y26670000D03*
X186690000Y29210000D03*
X97790000Y87630000D03*
X97790000Y90170000D03*
X100330000Y87630000D03*
X100330000Y90170000D03*
X102870000Y87630000D03*
X102870000Y90170000D03*
X105410000Y87630000D03*
X105410000Y90170000D03*
X107950000Y87630000D03*
X107950000Y90170000D03*
X110490000Y87630000D03*
X110490000Y90170000D03*
X113030000Y87630000D03*
X113030000Y90170000D03*
X115570000Y87630000D03*
X115570000Y90170000D03*
X118110000Y87630000D03*
X118110000Y90170000D03*
X120650000Y87630000D03*
X120650000Y90170000D03*
X123190000Y87630000D03*
X123190000Y90170000D03*
X125730000Y87630000D03*
X125730000Y90170000D03*
X128270000Y87630000D03*
X128270000Y90170000D03*
X130810000Y87630000D03*
X130810000Y90170000D03*
X133350000Y87630000D03*
X133350000Y90170000D03*
X135890000Y87630000D03*
X135890000Y90170000D03*
X138430000Y87630000D03*
X138430000Y90170000D03*
X140970000Y87630000D03*
X140970000Y90170000D03*
X143510000Y87630000D03*
X143510000Y90170000D03*
X146050000Y87630000D03*
X146050000Y90170000D03*
X148590000Y87630000D03*
X148590000Y90170000D03*
X151130000Y87630000D03*
X151130000Y90170000D03*
X153670000Y87630000D03*
X153670000Y90170000D03*
X156210000Y87630000D03*
X156210000Y90170000D03*
X158750000Y87630000D03*
X158750000Y90170000D03*
X161290000Y87630000D03*
X161290000Y90170000D03*
X163830000Y87630000D03*
X163830000Y90170000D03*
X166370000Y87630000D03*
X166370000Y90170000D03*
X168910000Y87630000D03*
X168910000Y90170000D03*
X171450000Y87630000D03*
X171450000Y90170000D03*
X173990000Y87630000D03*
X173990000Y90170000D03*
X176530000Y87630000D03*
X176530000Y90170000D03*
X179070000Y87630000D03*
X179070000Y90170000D03*
X181610000Y87630000D03*
X181610000Y90170000D03*
X184150000Y87630000D03*
X184150000Y90170000D03*
X186690000Y87630000D03*
X186690000Y90170000D03*
X69850000Y26670000D03*
X72390000Y26670000D03*
X69850000Y90170000D03*
X72390000Y90170000D03*
%TD*%
D11*
%TO.C,J7*%
X178280000Y21680000D03*
X175740000Y21680000D03*
D12*
X173200000Y21680000D03*
%TD*%
D13*
%TO.C,J28*%
X105069996Y102790000D03*
X108569996Y97790000D03*
X112069997Y102790000D03*
X115569997Y97790000D03*
%TD*%
%TO.C,J22*%
X90540005Y8970000D03*
X87040004Y13970000D03*
X83540003Y8970000D03*
X80040003Y13970000D03*
X76540002Y8970000D03*
X73040002Y13970000D03*
X69540001Y8970000D03*
X66040000Y13970000D03*
%TD*%
D14*
%TO.C,J8*%
X169350000Y12550000D03*
X194340000Y12550000D03*
D15*
X177735000Y11130000D03*
X180475000Y11130000D03*
X183215000Y11130000D03*
X185955000Y11130000D03*
X176365000Y13970000D03*
X179105000Y13970000D03*
X181845000Y13970000D03*
X184585000Y13970000D03*
X187325000Y13970000D03*
%TD*%
D13*
%TO.C,J17*%
X160980002Y8970000D03*
X157479999Y13970000D03*
%TD*%
%TO.C,J4*%
X190809998Y102790000D03*
X194310001Y97790000D03*
%TD*%
D16*
%TO.C,F2*%
X63754000Y46736000D03*
X62154000Y41636000D03*
%TD*%
D17*
%TO.C,J15*%
X193990000Y43180000D03*
X193990000Y55880000D03*
D18*
X190560000Y41280000D03*
X190560000Y57780000D03*
D19*
X191450000Y53100000D03*
X189670000Y52080000D03*
X191450000Y51060000D03*
X189670000Y50040000D03*
X191450000Y49020000D03*
X189670000Y48000000D03*
X191450000Y46980000D03*
X189670000Y45960000D03*
X184810000Y42670000D03*
X184810000Y44960000D03*
X184810000Y54100000D03*
X184810000Y56390000D03*
%TD*%
D11*
%TO.C,J3*%
X141940000Y51080000D03*
D12*
X139400000Y51080000D03*
%TD*%
D13*
%TO.C,J2*%
X58300005Y8970000D03*
X54800005Y13970000D03*
X51300004Y8970000D03*
X47800003Y13970000D03*
X44300003Y8970000D03*
X40800000Y13970000D03*
%TD*%
%TO.C,J1*%
X35100000Y8970000D03*
X31600000Y13970000D03*
X28099999Y8970000D03*
X24599998Y13970000D03*
X21099998Y8970000D03*
X17599995Y13970000D03*
%TD*%
D11*
%TO.C,J26*%
X44460000Y103080000D03*
D12*
X47000000Y103080000D03*
%TD*%
D10*
%TO.C,J25*%
X50800000Y59690000D03*
X53340000Y59690000D03*
X55880000Y59690000D03*
X50800000Y62230000D03*
X53340000Y62230000D03*
G36*
G01*
X55280000Y63080000D02*
X56480000Y63080000D01*
G75*
G02*
X56730000Y62830000I0J-250000D01*
G01*
X56730000Y61630000D01*
G75*
G02*
X56480000Y61380000I-250000J0D01*
G01*
X55280000Y61380000D01*
G75*
G02*
X55030000Y61630000I0J250000D01*
G01*
X55030000Y62830000D01*
G75*
G02*
X55280000Y63080000I250000J0D01*
G01*
G37*
%TD*%
%TO.C,J24*%
X95186500Y102870000D03*
X92646500Y102870000D03*
X90106500Y102870000D03*
X87566500Y102870000D03*
X85026500Y102870000D03*
X82486500Y102870000D03*
X79946500Y102870000D03*
X77406500Y102870000D03*
X74866500Y102870000D03*
X72326500Y102870000D03*
X95186500Y100330000D03*
X92646500Y100330000D03*
X90106500Y100330000D03*
X87566500Y100330000D03*
X85026500Y100330000D03*
X82486500Y100330000D03*
X79946500Y100330000D03*
X77406500Y100330000D03*
X74866500Y100330000D03*
G36*
G01*
X72926500Y99480000D02*
X71726500Y99480000D01*
G75*
G02*
X71476500Y99730000I0J250000D01*
G01*
X71476500Y100930000D01*
G75*
G02*
X71726500Y101180000I250000J0D01*
G01*
X72926500Y101180000D01*
G75*
G02*
X73176500Y100930000I0J-250000D01*
G01*
X73176500Y99730000D01*
G75*
G02*
X72926500Y99480000I-250000J0D01*
G01*
G37*
%TD*%
D13*
%TO.C,J23*%
X121020005Y8970000D03*
X117520004Y13970000D03*
X114020003Y8970000D03*
X110520003Y13970000D03*
X107020002Y8970000D03*
X103520002Y13970000D03*
X100020001Y8970000D03*
X96520000Y13970000D03*
%TD*%
D20*
%TO.C,K4*%
X58420000Y44390000D03*
D21*
X58420000Y40640000D03*
D22*
X58420000Y29390000D03*
X58420000Y24390000D03*
X58420000Y19390000D03*
%TD*%
D20*
%TO.C,K3*%
X46990000Y44390000D03*
D21*
X46990000Y40640000D03*
D22*
X46990000Y29390000D03*
X46990000Y24390000D03*
X46990000Y19390000D03*
%TD*%
D20*
%TO.C,K2*%
X35560000Y44390000D03*
D21*
X35560000Y40640000D03*
D22*
X35560000Y29390000D03*
X35560000Y24390000D03*
X35560000Y19390000D03*
%TD*%
D20*
%TO.C,K1*%
X24130000Y44390000D03*
D21*
X24130000Y40640000D03*
D22*
X24130000Y29390000D03*
X24130000Y24390000D03*
X24130000Y19390000D03*
%TD*%
D13*
%TO.C,J5*%
X151500005Y8970000D03*
X148000004Y13970000D03*
X144500003Y8970000D03*
X141000003Y13970000D03*
X137500002Y8970000D03*
X134000002Y13970000D03*
X130500001Y8970000D03*
X127000000Y13970000D03*
%TD*%
D11*
%TO.C,J6*%
X186002000Y37758000D03*
X186002000Y35218000D03*
X183462000Y37758000D03*
X183462000Y35218000D03*
X180922000Y37758000D03*
D12*
X180922000Y35218000D03*
%TD*%
D11*
%TO.C,J16*%
X163363000Y19939000D03*
D12*
X160823000Y19939000D03*
%TD*%
D11*
%TO.C,J9*%
X176604000Y35218000D03*
D12*
X176604000Y37758000D03*
%TD*%
D23*
%TO.C,C50*%
X163449000Y103505000D03*
D24*
X163449000Y106005000D03*
%TD*%
D23*
%TO.C,C51*%
X155956000Y103505000D03*
D24*
X155956000Y106005000D03*
%TD*%
%TO.C,C55*%
X139954000Y106005000D03*
D23*
X139954000Y103505000D03*
%TD*%
D24*
%TO.C,C56*%
X166039800Y99248600D03*
D23*
X166039800Y96748600D03*
%TD*%
%TO.C,C59*%
X158445200Y96748600D03*
D24*
X158445200Y99248600D03*
%TD*%
D16*
%TO.C,F1*%
X183693000Y96754000D03*
X185293000Y101854000D03*
%TD*%
D12*
%TO.C,J11*%
X180012000Y79590000D03*
D11*
X180012000Y77050000D03*
%TD*%
D12*
%TO.C,J12*%
X179972000Y60033000D03*
D11*
X179972000Y57493000D03*
%TD*%
%TO.C,J13*%
X180007800Y47808400D03*
D12*
X180007800Y50348400D03*
%TD*%
D11*
%TO.C,J14*%
X180041000Y67277000D03*
D12*
X180041000Y69817000D03*
%TD*%
D10*
%TO.C,J18*%
X5080000Y50800000D03*
X5080000Y48260000D03*
X5080000Y45720000D03*
X5080000Y43180000D03*
X5080000Y40640000D03*
X5080000Y38100000D03*
X5080000Y35560000D03*
X5080000Y33020000D03*
X5080000Y30480000D03*
X5080000Y27940000D03*
X5080000Y25400000D03*
X5080000Y22860000D03*
X5080000Y20320000D03*
X5080000Y17780000D03*
X5080000Y15240000D03*
X5080000Y12700000D03*
X5080000Y10160000D03*
X7620000Y50800000D03*
X7620000Y48260000D03*
X7620000Y45720000D03*
X7620000Y43180000D03*
X7620000Y40640000D03*
X7620000Y38100000D03*
X7620000Y35560000D03*
X7620000Y33020000D03*
X7620000Y30480000D03*
X7620000Y27940000D03*
X7620000Y25400000D03*
X7620000Y22860000D03*
X7620000Y20320000D03*
X7620000Y17780000D03*
X7620000Y15240000D03*
X7620000Y12700000D03*
G36*
G01*
X8470000Y10760000D02*
X8470000Y9560000D01*
G75*
G02*
X8220000Y9310000I-250000J0D01*
G01*
X7020000Y9310000D01*
G75*
G02*
X6770000Y9560000I0J250000D01*
G01*
X6770000Y10760000D01*
G75*
G02*
X7020000Y11010000I250000J0D01*
G01*
X8220000Y11010000D01*
G75*
G02*
X8470000Y10760000I0J-250000D01*
G01*
G37*
%TD*%
%TO.C,J19*%
G36*
G01*
X8470000Y61560000D02*
X8470000Y60360000D01*
G75*
G02*
X8220000Y60110000I-250000J0D01*
G01*
X7020000Y60110000D01*
G75*
G02*
X6770000Y60360000I0J250000D01*
G01*
X6770000Y61560000D01*
G75*
G02*
X7020000Y61810000I250000J0D01*
G01*
X8220000Y61810000D01*
G75*
G02*
X8470000Y61560000I0J-250000D01*
G01*
G37*
X7620000Y63500000D03*
X7620000Y66040000D03*
X7620000Y68580000D03*
X7620000Y71120000D03*
X7620000Y73660000D03*
X7620000Y76200000D03*
X7620000Y78740000D03*
X7620000Y81280000D03*
X7620000Y83820000D03*
X7620000Y86360000D03*
X7620000Y88900000D03*
X7620000Y91440000D03*
X7620000Y93980000D03*
X7620000Y96520000D03*
X7620000Y99060000D03*
X7620000Y101600000D03*
X5080000Y60960000D03*
X5080000Y63500000D03*
X5080000Y66040000D03*
X5080000Y68580000D03*
X5080000Y71120000D03*
X5080000Y73660000D03*
X5080000Y76200000D03*
X5080000Y78740000D03*
X5080000Y81280000D03*
X5080000Y83820000D03*
X5080000Y86360000D03*
X5080000Y88900000D03*
X5080000Y91440000D03*
X5080000Y93980000D03*
X5080000Y96520000D03*
X5080000Y99060000D03*
X5080000Y101600000D03*
%TD*%
D25*
%TO.C,U11*%
X172847000Y97790000D03*
D26*
X175387000Y97790000D03*
X177927000Y97790000D03*
%TD*%
M02*
